<svg id="圖層_1" data-name="圖層 1" xmlns="http://www.w3.org/2000/svg" width="1000" height="1000" viewBox="0 0 1000 1000">
  <rect x="-0.3139" y="0.08296" width="1000" height="1000" rx="68" style="fill: #ea27c2"/>
  <g>
    <path d="M721.74765,479.66349H675.20933a98.48973,98.48973,0,0,1-98.48974-98.48973V334.75859a98.48974,98.48974,0,0,1,98.48974-98.48973h46.53832a98.48974,98.48974,0,0,1,98.48974,98.48973v46.41517A98.48973,98.48973,0,0,1,721.74765,479.66349Zm-42.27246-188.06a47.421,47.421,0,0,0-47.421,47.421v37.76941a47.421,47.421,0,0,0,47.421,47.421h38.0066a47.421,47.421,0,0,0,47.421-47.421V339.02446a47.421,47.421,0,0,0-47.421-47.421Z" style="fill: #fff"/>
    <path d="M437.33082,236.0998h-9.02906a98.1736,98.1736,0,0,0-70.82414,30.086,98.1736,98.1736,0,0,0-70.82414-30.086h-9.02906a98.48967,98.48967,0,0,0-98.48961,98.48977V479.53845h55.33443v-140.683a47.421,47.421,0,0,1,47.421-47.421h.49745a47.421,47.421,0,0,1,47.421,47.421v140.683h55.33792v-140.683a47.42094,47.42094,0,0,1,47.421-47.421h.49729a47.42094,47.42094,0,0,1,47.421,47.421v140.683h55.33459V334.58957A98.48977,98.48977,0,0,0,437.33082,236.0998Z" style="fill: #fff"/>
    <path d="M721.74765,764.06612H675.20933a98.48973,98.48973,0,0,1-98.48974-98.48973V619.16122a98.48973,98.48973,0,0,1,98.48974-98.48973h46.53832a98.48973,98.48973,0,0,1,98.48974,98.48973v46.41517A98.48973,98.48973,0,0,1,721.74765,764.06612Zm-42.27246-188.06a47.421,47.421,0,0,0-47.421,47.421V661.1965a47.421,47.421,0,0,0,47.421,47.421h38.0066a47.421,47.421,0,0,0,47.421-47.421V623.42708a47.421,47.421,0,0,0-47.421-47.421Z" style="fill: #fff"/>
    <path d="M437.33082,520.50249h-9.02906a98.1736,98.1736,0,0,0-70.82414,30.086,98.1736,98.1736,0,0,0-70.82414-30.086h-9.02906a98.48965,98.48965,0,0,0-98.48961,98.48969V763.94106h55.33443v-140.683a47.421,47.421,0,0,1,47.421-47.421h.49745a47.421,47.421,0,0,1,47.421,47.421v140.683h55.33792v-140.683a47.42094,47.42094,0,0,1,47.421-47.421h.49729a47.42094,47.42094,0,0,1,47.421,47.421v140.683h55.33459V618.99218A98.48975,98.48975,0,0,0,437.33082,520.50249Z" style="fill: #fff"/>
  </g>
</svg>
